# xmcd
#
# Track frame offsets:
#	150
#	10838
#	26281
#	46105
#	59994
#	72147
#	85521
#	101761
#	119531
#	136204
#	150759
#	167560
#	181177
#	201273
#	218277
#	236845
#
# Disc length: 3384 seconds
#
# Revision: 1
# Processed by: cddbd v1.4PL0 Copyright (c) Steve Scherf et al.
# Submitted via: audiograbber 1.81.02
#
DISCID=c70d3610
DTITLE=Vaya con Dios - Vaya con Dios
DYEAR=1900
DGENRE=
TTITLE0=Johnny
TTITLE1=Just A Friend Of Mine
TTITLE2=Puerto Rico
TTITLE3=Don't Cry For Louie
TTITLE4=Something Got A Hold On Me
TTITLE5=Neh Nah Nah
TTITLE6=I Don't Want To Know
TTITLE7=What's A Women
TTITLE8=Time Flies
TTITLE9=Farewel Song
TTITLE10=Heading For A Fall
TTITLE11=At The Parallelle
TTITLE12=Don't Break My Heart
TTITLE13=Stay With Me
TTITLE14=Lounly Feeling
TTITLE15=Evening Of Love
EXTD=
EXTT0=
EXTT1=
EXTT2=
EXTT3=
EXTT4=
EXTT5=
EXTT6=
EXTT7=
EXTT8=
EXTT9=
EXTT10=
EXTT11=
EXTT12=
EXTT13=
EXTT14=
EXTT15=
PLAYORDER=
